<svg xmlns="http://www.w3.org/2000/svg" id="Warstwa_2" viewBox="0 0 27.48 27.22"><defs><style>      .cls-1 {        fill: #231f20;      }    </style></defs><g id="Layer_2"><path class="cls-1" d="M8.48,11.05c-1.04-.64-2.4-.31-3.03.73-.64,1.04-.31,2.4.73,3.03l8.27,5.07c1.04.64,2.4.31,3.03-.73L27.15,3.36c.64-1.04.31-2.4-.73-3.03-1.04-.64-2.4-.31-3.03.73l-1.32,2.15C16.76-1.13,8.91-.84,3.96,4.11c-5.28,5.28-5.28,13.87,0,19.15,5.22,5.22,13.68,5.27,18.97.16h0s.05-.05.08-.08c.03-.03.06-.05.09-.08l-.69-.35c-5.01,4.83-13.01,4.77-17.94-.17-5-5-5-13.12,0-18.12C9.18-.08,16.67-.34,21.69,3.83l-6.82,11.14-6.39-3.92Z"></path></g></svg>