<svg xmlns="http://www.w3.org/2000/svg" id="Warstwa_2" viewBox="0 0 132.9 145.41"><defs><style>      .cls-1 {        fill: #fff;      }    </style></defs><g id="Layer_1"><g><g><path class="cls-1" d="M15.37,51.15L0,44.02l1.6-3.44,15.37,7.13-1.6,3.44Z"></path><path class="cls-1" d="M19.49,42.43l-12.95-10.93,1.72-2.04,3.31,1.32,10.36,8.75-2.45,2.9ZM27.03,33.5l-16.2-.64-2.57-3.39,16.22.62,2.55,3.41ZM27.03,33.5l-3.24-1.41-10.36-8.75,2.46-2.92,12.95,10.93-1.81,2.15Z"></path><path class="cls-1" d="M37.44,25.42l-14.11-11.44,3.52-2.02,11.14,9.4-1.43.82-2.48-14.38,3.47-2,2.72,17.98-2.83,1.63Z"></path><path class="cls-1" d="M50.51,19.54l-4.32-16.38,3.67-.97,4.32,16.38-3.67.97Z"></path><path class="cls-1" d="M64.95,17.49c-1.41.04-2.62-.16-3.63-.58-1.01-.42-1.94-1.09-2.78-1.99l2.38-2.51c.56.61,1.18,1.08,1.85,1.41.67.33,1.45.48,2.33.46.78-.02,1.39-.18,1.82-.49s.64-.72.63-1.23c-.01-.45-.16-.81-.45-1.09-.29-.28-.67-.52-1.16-.71-.48-.2-1.01-.38-1.57-.55-.56-.17-1.13-.38-1.71-.62-.57-.24-1.1-.54-1.58-.9-.48-.36-.87-.82-1.18-1.39-.3-.57-.47-1.28-.49-2.12-.03-1.06.2-1.97.69-2.73.49-.76,1.18-1.35,2.08-1.77.9-.42,1.93-.64,3.08-.67,1.2-.03,2.29.15,3.28.54s1.81.93,2.47,1.62l-2.41,2.53c-.53-.51-1.05-.89-1.58-1.13-.53-.24-1.11-.36-1.75-.34-.66.02-1.17.15-1.55.41-.38.26-.56.62-.55,1.08.01.42.16.75.46,1.01.29.26.68.48,1.16.65.48.18,1,.36,1.57.54.57.18,1.15.38,1.72.62.57.23,1.1.54,1.57.93.47.39.87.87,1.18,1.46s.48,1.32.5,2.22c.04,1.62-.5,2.9-1.63,3.85-1.13.95-2.72,1.45-4.76,1.5Z"></path><path class="cls-1" d="M76.54,18.06l3.62-16.55,3.7.81-3.62,16.55-3.71-.81Z"></path><path class="cls-1" d="M86.03,20.37l7.61-15.14,3.34,1.68-7.61,15.14-3.34-1.68ZM88.63,21.67l1.33-2.64,3.56,1.79c.64.32,1.25.39,1.81.2.56-.19.99-.57,1.27-1.15.19-.37.27-.75.25-1.14-.02-.39-.14-.74-.36-1.07-.22-.33-.55-.6-.97-.81l-3.56-1.79,1.29-2.57,3.28,1.65c.54.27,1.05.36,1.53.26.48-.1.86-.43,1.15-1.01.27-.54.31-1.04.11-1.49s-.58-.81-1.12-1.09l-3.28-1.65,1.33-2.64,3.92,1.97c.97.49,1.71,1.08,2.22,1.79s.78,1.44.83,2.22c.05.78-.11,1.52-.47,2.24-.48.96-1.18,1.6-2.1,1.94-.92.33-2.03.33-3.32-.02l.66-1.09c1.16.89,1.9,1.88,2.21,2.97.31,1.09.2,2.18-.35,3.26-.42.83-1,1.47-1.73,1.92-.74.45-1.59.68-2.55.69-.96,0-1.98-.26-3.05-.8l-3.88-1.95Z"></path><path class="cls-1" d="M101.34,29.14l11.72-12.23,2.74,2.62-11.73,12.23-2.74-2.62ZM103.46,31.17l2.29-2.39,6.05,5.8-2.29,2.39-6.05-5.8Z"></path><path class="cls-1" d="M112.22,40.57l14.79-8.28,1.85,3.31-14.79,8.28-1.85-3.31ZM113.64,43.1l2.85-1.59,4.55,8.13-2.85,1.59-4.55-8.13ZM119.8,39.66l2.79-1.56,4.13,7.37-2.79,1.56-4.13-7.37ZM125.58,36.42l2.85-1.59,4.48,8-2.85,1.59-4.48-8Z"></path></g><g><path class="cls-1" d="M4.62,110.8c-.64-1.09-1.05-2.21-1.21-3.36-.17-1.15-.11-2.28.17-3.38.28-1.1.76-2.12,1.45-3.04.69-.93,1.57-1.7,2.63-2.33,1.06-.62,2.16-1.01,3.31-1.17,1.14-.15,2.26-.08,3.34.22s2.09.8,3.01,1.5c.92.7,1.71,1.6,2.36,2.71.68,1.16,1.1,2.3,1.26,3.42.16,1.12.11,2.21-.14,3.27l-3.5-.89c.19-.62.25-1.27.16-1.95-.09-.68-.34-1.38-.76-2.1-.37-.63-.82-1.15-1.34-1.55-.52-.4-1.1-.67-1.72-.82-.63-.15-1.28-.16-1.97-.04-.69.13-1.36.38-2.02.77-.69.41-1.25.88-1.69,1.41-.44.54-.75,1.12-.92,1.74-.18.62-.22,1.26-.13,1.91.1.65.33,1.29.7,1.93.44.75.93,1.33,1.49,1.74.55.42,1.16.69,1.81.83l-.91,3.52c-1.07-.3-2.05-.8-2.95-1.49-.9-.69-1.7-1.64-2.41-2.84Z"></path><path class="cls-1" d="M20.74,129.16c-.99-.81-1.77-1.73-2.33-2.76s-.91-2.12-1.04-3.25c-.13-1.14-.03-2.26.29-3.37.32-1.11.87-2.14,1.65-3.1.79-.97,1.69-1.72,2.7-2.26,1.01-.54,2.08-.86,3.2-.97,1.12-.11,2.24,0,3.36.35,1.12.34,2.18.92,3.17,1.73.98.8,1.75,1.71,2.31,2.73s.91,2.1,1.04,3.23c.13,1.13.04,2.25-.29,3.35-.33,1.1-.88,2.14-1.67,3.11-.78.96-1.67,1.71-2.69,2.25-1.02.54-2.09.87-3.21.98-1.12.11-2.24,0-3.35-.33-1.11-.33-2.16-.89-3.14-1.69ZM22.88,126.45c.78.63,1.61,1.02,2.47,1.14.87.13,1.72.01,2.55-.34.83-.35,1.58-.94,2.25-1.76.49-.61.85-1.24,1.07-1.89.22-.65.31-1.31.26-1.95-.05-.65-.24-1.27-.57-1.85s-.78-1.11-1.35-1.57c-.78-.64-1.61-1.02-2.48-1.16-.87-.14-1.71-.03-2.54.32-.82.35-1.56.94-2.23,1.76-.5.62-.87,1.26-1.1,1.92-.23.66-.32,1.32-.26,1.96.05.65.24,1.26.56,1.84s.78,1.11,1.36,1.58Z"></path><path class="cls-1" d="M44.74,142.09c-1.22-.39-2.28-.96-3.19-1.71-.9-.75-1.62-1.64-2.16-2.65-.54-1.01-.86-2.09-.97-3.24-.11-1.15.03-2.31.4-3.49.38-1.19.94-2.22,1.68-3.09.74-.87,1.62-1.57,2.62-2.08,1-.51,2.09-.82,3.26-.91,1.17-.09,2.36.05,3.58.44,1.21.38,2.26.94,3.16,1.69.9.74,1.62,1.62,2.15,2.62.54,1,.86,2.08.96,3.22.1,1.15-.04,2.32-.41,3.51-.37,1.18-.93,2.2-1.68,3.08-.75.88-1.62,1.58-2.62,2.09-1,.51-2.08.82-3.24.93-1.16.1-2.34-.03-3.54-.41ZM45.73,138.78c.96.3,1.87.35,2.72.15.85-.2,1.6-.62,2.25-1.25s1.13-1.46,1.45-2.46c.24-.75.34-1.47.3-2.16-.03-.69-.19-1.33-.48-1.91-.29-.58-.69-1.09-1.21-1.51-.52-.43-1.13-.75-1.83-.97-.96-.3-1.87-.36-2.73-.17-.86.19-1.6.6-2.24,1.23-.63.63-1.11,1.45-1.43,2.46-.24.76-.35,1.49-.31,2.19.03.7.19,1.34.47,1.92.28.58.68,1.09,1.2,1.51.51.42,1.13.75,1.85.97Z"></path><path class="cls-1" d="M63.57,145.41l-.9-16.92,3.79-.2.9,16.92-3.79.2ZM73.8,144.86l-7.3-8.48,6.18-8.43,4.67-.25-7.01,9.19-.08-1.53,8.26,9.25-4.72.25Z"></path><path class="cls-1" d="M86.75,142.31l-5.13-16.15,3.61-1.15,5.12,16.15-3.61,1.15Z"></path><path class="cls-1" d="M100.02,137.4l-9.23-14.21,2.23-1.45,2.79,2.22,7.39,11.37-3.18,2.07ZM109.82,131.03l-15.32-5.3-1.48-3.99,15.34,5.29,1.46,4ZM109.82,131.03l-2.69-2.29-7.39-11.37,3.2-2.08,9.23,14.21-2.36,1.53Z"></path><path class="cls-1" d="M125.3,115.66c-.75,1-1.62,1.8-2.63,2.39-1.01.59-2.08.97-3.19,1.14-1.12.16-2.24.11-3.36-.15-1.12-.27-2.17-.77-3.16-1.5-1-.75-1.78-1.62-2.35-2.62s-.92-2.07-1.05-3.21c-.14-1.14-.06-2.28.23-3.43.3-1.15.82-2.23,1.58-3.24.87-1.17,1.88-2.07,3.03-2.71,1.15-.64,2.33-1,3.54-1.07l.53,3.63c-.88,0-1.69.2-2.42.58-.73.38-1.37.94-1.92,1.67-.59.8-.95,1.64-1.06,2.53-.12.89.01,1.75.39,2.58.37.83.98,1.55,1.83,2.18.83.62,1.7,1,2.6,1.13.9.13,1.76.03,2.57-.3.81-.33,1.51-.89,2.1-1.67.58-.78.93-1.57,1.04-2.35.12-.78,0-1.54-.36-2.27-.35-.73-.93-1.4-1.74-2l2.85-1.02-4.61,5.99-2.56-1.91,5.32-7.14.44.33c1.62,1.2,2.77,2.51,3.45,3.93.68,1.42.92,2.85.72,4.31-.2,1.46-.8,2.86-1.8,4.21Z"></path></g></g></g></svg>