<svg xmlns="http://www.w3.org/2000/svg" id="Layer_1" viewBox="0 0 352.38 68.21"><defs><style>      .cls-1 {        fill: #fff;      }    </style></defs><rect class="cls-1" x="330.28" width="22.1" height="68.21"></rect><path class="cls-1" d="M285.27,68.21l-12.03-20.03c-.11-.16-.2-.29-.29-.42-.14-.2-.27-.39-.41-.57-3.68-4.98-8.4-10.15-15.59-10.88v-4.39c7.19-.73,11.91-5.91,15.59-10.89.14-.19.28-.39.42-.59.09-.13.17-.25.26-.37l12.05-20.07h26.32l-21.95,34.04.04.06-.05.06,21.95,34.05h-26.32Z"></path><path class="cls-1" d="M222.54,68.21l-12.03-20.03c-.12-.16-.21-.3-.3-.43-.14-.21-.27-.39-.4-.57-3.68-4.98-8.4-10.15-15.59-10.89v-4.39c7.19-.73,11.91-5.91,15.59-10.89.14-.18.27-.37.4-.56.1-.14.19-.27.28-.4L222.54,0h26.32l-21.95,34.04.04.06-.05.06,21.95,34.05h-26.32Z"></path><rect class="cls-1" x="164.89" width="21.23" height="68.21"></rect><path class="cls-1" d="M57.65,68.21l-12.03-20.03c-.12-.17-.21-.3-.3-.43-.14-.2-.27-.38-.4-.56-3.68-4.98-8.4-10.15-15.59-10.89v-4.39c7.19-.73,11.91-5.91,15.59-10.89.14-.19.27-.38.41-.57.1-.15.19-.27.27-.38L57.65,0h26.32l-21.95,34.04.04.06-.05.06,21.95,34.05h-26.32Z"></path><rect class="cls-1" width="21.23" height="68.21"></rect><path class="cls-1" d="M119.87,59.87c-12.21,0-22.14-9.93-22.14-22.14s9.93-22.14,22.14-22.14,22.15,9.93,22.15,22.14-9.94,22.14-22.15,22.14Z"></path></svg>